<svg xmlns="http://www.w3.org/2000/svg" width="168.233" height="109.11" viewBox="0 0 168.233 109.11">
  <g id="img_balloon-pickup" transform="matrix(0.996, 0.087, -0.087, 0.996, -1014.514, -574.332)">
    <g id="パス_54664" data-name="パス 54664" transform="translate(-318.115 -341.902)" fill="#fff" stroke-linecap="round" stroke-linejoin="round">
      <path d="M 1434.491333007812 918.406494140625 L 1440.16796875 904.8656005859375 L 1440.521850585938 904.0216064453125 L 1439.614624023438 903.9010620117188 C 1417.814819335938 901.0045776367188 1402.241333007812 893.8152465820312 1399.939331054688 885.58544921875 L 1399.85693359375 885.29052734375 L 1399.584350585938 885.1509399414062 C 1392.03564453125 881.2848510742188 1388.080200195312 876.9456176757812 1387.827758789062 872.2537841796875 C 1387.659545898438 869.1275024414062 1389.127319335938 865.77978515625 1392.190063476562 862.3035278320312 C 1394.540649414062 859.6357421875 1397.777709960938 856.940673828125 1401.811279296875 854.293212890625 L 1402.455444335938 853.870361328125 L 1401.972778320312 853.2695922851562 C 1400.425415039062 851.3435668945312 1399.640747070312 849.3663940429688 1399.640747070312 847.3930053710938 C 1399.640747070312 844.5697631835938 1401.191040039062 841.8027954101562 1404.248413085938 839.1690063476562 C 1407.293090820312 836.5462036132812 1411.670776367188 834.1837768554688 1417.259887695312 832.1473388671875 C 1422.885864257812 830.097412109375 1429.442504882812 828.4871826171875 1436.747924804688 827.361328125 C 1444.322998046875 826.1939086914062 1452.371337890625 825.6019897460938 1460.669311523438 825.6019897460938 C 1475.710815429688 825.6019897460938 1490.174072265625 827.60107421875 1501.394775390625 831.2311401367188 C 1506.8271484375 832.9885864257812 1511.307250976562 835.0546264648438 1514.71044921875 837.3720092773438 C 1518.130249023438 839.7006225585938 1520.319946289062 842.1865844726562 1521.218872070312 844.7608032226562 L 1521.3388671875 845.1044311523438 L 1521.689086914062 845.2035522460938 C 1525.391357421875 846.2515869140625 1528.8447265625 847.6532592773438 1531.953247070312 849.3695678710938 C 1535.02978515625 851.0681762695312 1537.718017578125 853.0467529296875 1539.943359375 855.2503662109375 C 1544.5185546875 859.7808227539062 1546.936889648438 865.0619506835938 1546.936889648438 870.5230102539062 C 1546.936889648438 874.1680297851562 1545.873901367188 877.71044921875 1543.777465820312 881.0516967773438 C 1541.736083984375 884.3051147460938 1538.804077148438 887.2378540039062 1535.062744140625 889.7684326171875 C 1531.303466796875 892.3111572265625 1526.915771484375 894.3203735351562 1522.021484375 895.7403564453125 C 1516.94873046875 897.2120971679688 1511.549926757812 897.9834594726562 1505.974975585938 898.0330200195312 L 1505.84521484375 898.0341186523438 L 1505.724609375 898.0817260742188 C 1500.048583984375 900.3180541992188 1493.31201171875 902.0804443359375 1485.702026367188 903.31982421875 C 1477.8095703125 904.605224609375 1469.387329101562 905.2569580078125 1460.669311523438 905.2569580078125 C 1458.3857421875 905.2569580078125 1456.067993164062 905.206787109375 1453.58349609375 905.1035766601562 L 1453.345336914062 905.0936889648438 L 1453.150634765625 905.2311401367188 L 1434.491333007812 918.406494140625 Z" stroke="none"/>
      <path d="M 1460.669311523438 826.3019409179688 C 1452.406982421875 826.3019409179688 1444.39453125 826.8911743164062 1436.8544921875 828.0531616210938 C 1429.594482421875 829.1719970703125 1423.08251953125 830.7708129882812 1417.49951171875 832.8049926757812 C 1411.990234375 834.8123779296875 1407.685546875 837.1320190429688 1404.705322265625 839.6993408203125 C 1401.809204101562 842.1941528320312 1400.3408203125 844.78271484375 1400.3408203125 847.3930053710938 C 1400.3408203125 849.202880859375 1401.073486328125 851.0325927734375 1402.5185546875 852.8311767578125 C 1402.765625 853.1387939453125 1402.871459960938 853.5364990234375 1402.809936523438 853.9263305664062 C 1402.748413085938 854.3161010742188 1402.525268554688 854.661865234375 1402.1953125 854.87841796875 C 1398.213989257812 857.4915771484375 1395.024536132812 860.1453857421875 1392.71533203125 862.7662963867188 C 1389.777954101562 866.10009765625 1388.368774414062 869.2794799804688 1388.526733398438 872.2161254882812 C 1388.764892578125 876.6412963867188 1392.592529296875 880.7835693359375 1399.903442382812 884.5279541015625 C 1400.2509765625 884.7058715820312 1400.50830078125 885.0208740234375 1400.613525390625 885.3968505859375 C 1401.137451171875 887.2702026367188 1402.428588867188 889.1325073242188 1404.450805664062 890.9319458007812 C 1406.515502929688 892.7692260742188 1409.30078125 894.5050048828125 1412.729248046875 896.0911254882812 C 1419.7353515625 899.3323974609375 1429.064086914062 901.7930908203125 1439.706787109375 903.2071533203125 C 1440.139038085938 903.2645874023438 1440.519897460938 903.5200805664062 1440.73681640625 903.8983154296875 C 1440.953735351562 904.2764892578125 1440.982177734375 904.734130859375 1440.813598632812 905.13623046875 L 1436.079833984375 916.4279174804688 L 1452.746948242188 904.6593627929688 C 1452.999389648438 904.4810180664062 1453.303466796875 904.3916015625 1453.612548828125 904.4041748046875 C 1456.087280273438 904.5070190429688 1458.3955078125 904.5569458007812 1460.669311523438 904.5569458007812 C 1469.349731445312 904.5569458007812 1477.734130859375 903.9082641601562 1485.589477539062 902.62890625 C 1493.150268554688 901.3975830078125 1499.83837890625 899.6484985351562 1505.468017578125 897.430419921875 C 1505.627563476562 897.3675537109375 1505.797241210938 897.3345336914062 1505.96875 897.3330078125 C 1511.479736328125 897.2840576171875 1516.815063476562 896.52197265625 1521.826416015625 895.0680541992188 C 1526.650390625 893.66845703125 1530.971801757812 891.6903076171875 1534.670532226562 889.1885986328125 C 1538.330688476562 886.7129516601562 1541.195190429688 883.85009765625 1543.184448242188 880.6796875 C 1545.209838867188 877.4515991210938 1546.23681640625 874.034423828125 1546.23681640625 870.5230102539062 C 1546.23681640625 865.2529907226562 1543.890258789062 860.143798828125 1539.450805664062 855.747802734375 C 1537.271362304688 853.5895385742188 1534.634887695312 851.6497802734375 1531.614990234375 849.9823608398438 C 1528.553100585938 848.2918090820312 1525.1494140625 846.9105834960938 1521.498413085938 845.8771362304688 C 1521.059326171875 845.7528076171875 1520.708374023438 845.42236328125 1520.557983398438 844.9915771484375 C 1519.709594726562 842.5619506835938 1517.609619140625 840.1929931640625 1514.316528320312 837.9506225585938 C 1510.96826171875 835.6707153320312 1506.54833984375 833.634033203125 1501.179321289062 831.8971557617188 C 1490.026489257812 828.2890625 1475.6396484375 826.3019409179688 1460.669311523438 826.3019409179688 M 1460.669311523438 824.9019775390625 C 1492.096435546875 824.9019775390625 1518.0146484375 833.4609985351562 1521.879760742188 844.530029296875 C 1537.020141601562 848.8159790039062 1547.636840820312 858.8410034179688 1547.636840820312 870.5230102539062 C 1547.636840820312 885.9819946289062 1529.036865234375 898.5280151367188 1505.981201171875 898.7329711914062 C 1494.707153320312 903.1749877929688 1478.581420898438 905.9569702148438 1460.669311523438 905.9569702148438 C 1458.261962890625 905.9569702148438 1455.890258789062 905.9000244140625 1453.554443359375 905.802978515625 L 1432.90283203125 920.385009765625 L 1439.5224609375 904.594970703125 C 1417.74951171875 901.7020263671875 1401.698486328125 894.4730224609375 1399.265258789062 885.7739868164062 C 1376.403198242188 874.0650024414062 1390.909912109375 860.6110229492188 1401.427124023438 853.7080078125 C 1399.81787109375 851.7050170898438 1398.940795898438 849.5869750976562 1398.940795898438 847.3930053710938 C 1398.940795898438 834.9719848632812 1426.576416015625 824.9019775390625 1460.669311523438 824.9019775390625 Z" stroke="none" fill="#222"/>
    </g>
    <path id="パス_54666" data-name="パス 54666" d="M-35.355.984A.738.738,0,0,1-35.637.8a.738.738,0,0,1-.187-.281V.141a50.546,50.546,0,0,0,.961-6.7q.258-3.4.586-6.422h-.187l-.4.2a.788.788,0,0,1-.492.059.7.7,0,0,1-.281-.2.836.836,0,0,1-.187-.293v-.375a1.162,1.162,0,0,1,.281-.352,1.791,1.791,0,0,1,.375-.258l.891-.281q0-.234.023-.492a.533.533,0,0,1,.211-.4.722.722,0,0,1,.281-.117,2.019,2.019,0,0,1,.328-.023.738.738,0,0,1,.281.188.738.738,0,0,1,.188.281l.047.328h.281a10.071,10.071,0,0,1,1.219-.117q.633-.023,1.242-.023a4.564,4.564,0,0,1,1.664.4,4.87,4.87,0,0,1,1.43,1.008,2.7,2.7,0,0,1,.445,1.23,8,8,0,0,1,.023,1.371,5.48,5.48,0,0,1-.609,1.43A6.533,6.533,0,0,1-28.441-7.9a24.776,24.776,0,0,1-2.449,1.641,8.571,8.571,0,0,1-2.73,1.031q-.187,1.547-.352,3.082A10.6,10.6,0,0,1-34.746.844a.722.722,0,0,1-.281.117A2.019,2.019,0,0,1-35.355.984Zm3.867-8.461Q-30.6-7.992-29.73-8.6A4.417,4.417,0,0,0-28.348-10.2a4.458,4.458,0,0,0,.328-.82,2.993,2.993,0,0,0,.047-.961l-.375-.8a3.376,3.376,0,0,0-1.477-.633,7.705,7.705,0,0,0-1.711-.094l-1.336.141q-.094,1.8-.328,3.352t-.328,3.328h.141a6.225,6.225,0,0,0,.973-.352Q-31.957-7.242-31.488-7.477Zm9.8,6.141-.656-.422a9.649,9.649,0,0,1-.328-2.473q0-1.23-.023-2.52l.047-.047.07-2.531.352-.727h.469l.539.3a1.729,1.729,0,0,1,.188.422,1.042,1.042,0,0,1,.023.492l-.234.492-.07,2.461-.047.234q.023.961.059,1.922t.152,1.969l-.164.445Zm-.961-9.609-.609-.352a2.336,2.336,0,0,1-.164-.48,2.59,2.59,0,0,1-.047-.527l.258-.352a8.542,8.542,0,0,0,1.078-.785,2.244,2.244,0,0,1,1.266-.527l.656.328a2.861,2.861,0,0,1,.2.445.875.875,0,0,1,.035.469l-.164.375a3.251,3.251,0,0,0-1.254.645A5.167,5.167,0,0,1-22.652-10.945Zm9.563,9.3a5.558,5.558,0,0,1-1.687-.551,4.811,4.811,0,0,1-1.43-1.137,3.928,3.928,0,0,1-.656-1.582,8,8,0,0,1-.094-1.746,6.157,6.157,0,0,1,.5-1.641A6.366,6.366,0,0,1-15.5-9.75a5.172,5.172,0,0,1,1.488-1.09,3.8,3.8,0,0,1,1.84-.34,5.027,5.027,0,0,1,.984.434,4.149,4.149,0,0,1,.867.668q.164.258.293.5a.985.985,0,0,1,.082.6l-.141.422h-.375l-.609-.4a1,1,0,0,0-.27-.352,1.824,1.824,0,0,0-.293-.187l-.633-.094a7.6,7.6,0,0,0-1.184.527A4.178,4.178,0,0,0-14.52-8.2,5.267,5.267,0,0,0-15.3-6.961a4.038,4.038,0,0,0-.34,1.406,6.193,6.193,0,0,0,.152.914,1.346,1.346,0,0,0,.48.727,2.826,2.826,0,0,0,1.242.574,5.876,5.876,0,0,0,1.453.082,9.9,9.9,0,0,0,1.91-.668A10.476,10.476,0,0,0-8.73-4.9v-.187h.516L-7.7-4.8q.117.258.2.445a.969.969,0,0,1,.035.516l-.234.375a10.912,10.912,0,0,1-2.5,1.43A6.123,6.123,0,0,1-13.09-1.641ZM-4.043.234l-.562-.352a6.953,6.953,0,0,1-.34-1.969,14.77,14.77,0,0,0-.152-1.9,1.083,1.083,0,0,1-.4-.3,1.42,1.42,0,0,1-.3-.539,3.3,3.3,0,0,1-.082-.621q-.012-.316-.012-.715L-5.262-7.2l.117-2.344q.094-1.547.246-3.094a18.152,18.152,0,0,1,.574-3.07h.469l.516.3a2.346,2.346,0,0,1,.188.434.9.9,0,0,1,.023.457,24.006,24.006,0,0,0-.5,3.117q-.152,1.594-.223,3A10.761,10.761,0,0,1-1.2-10.113Q.34-10.828,1.98-11.461l.539.352a1.442,1.442,0,0,1,.2.434,1.1,1.1,0,0,1,.012.48l-.164.352Q1-9.141-.48-8.414a15.757,15.757,0,0,0-2.836,1.8,2.794,2.794,0,0,1-.4.41.449.449,0,0,0-.164.48l.07.867q.82.281,1.8.574a8.433,8.433,0,0,0,2.039.34H1.3l.539.3A3.129,3.129,0,0,0,2-3.2a.768.768,0,0,1,.023.5l-.187.4-.328.023-.7-.094H-.457A17.066,17.066,0,0,1-2.25-2.8q-.9-.27-1.535-.48l.023-.117q.07.891.105,1.57T-3.5-.187l-.187.422ZM16.84-.727a4.55,4.55,0,0,1-1.734-.633,5.909,5.909,0,0,1-1.453-1.289,7.256,7.256,0,0,1-.738-1.957,10.921,10.921,0,0,1-.246-2.1l.117-2.414q.211-1.219.516-2.367a9.3,9.3,0,0,1,.867-2.156.736.736,0,0,1,.41-.152,3,3,0,0,1,.457.012l.68.375a2.11,2.11,0,0,1,.176.516,2.21,2.21,0,0,1,.035.609l-.187.141-.023.094-.422.211a13.686,13.686,0,0,0-.844,2.484,12.7,12.7,0,0,0-.328,2.719,10.719,10.719,0,0,0,.211,1.863,3.6,3.6,0,0,0,.844,1.676q.328.211.645.422a1.45,1.45,0,0,0,.738.234q.656-.211,1.336-.5a5.1,5.1,0,0,0,1.266-.785,9.8,9.8,0,0,0,1.559-2.191,9.221,9.221,0,0,0,.855-2.52,6.021,6.021,0,0,0-.34-2.18q-.363-1.008-.691-2.062l.094-.562.469.023.68.375a6.879,6.879,0,0,1,1.09,2.8,13.557,13.557,0,0,1,.082,3.152,10.157,10.157,0,0,1-1,2.66A10.412,10.412,0,0,1,20.238-1.9a7.068,7.068,0,0,1-1.547.914A3.77,3.77,0,0,1,16.84-.727ZM25.512.984A.738.738,0,0,1,25.23.8a.738.738,0,0,1-.187-.281V.141A50.546,50.546,0,0,0,26-6.562q.258-3.4.586-6.422H26.4l-.4.2a.788.788,0,0,1-.492.059.7.7,0,0,1-.281-.2.836.836,0,0,1-.187-.293v-.375a1.162,1.162,0,0,1,.281-.352A1.791,1.791,0,0,1,25.7-14.2l.891-.281q0-.234.023-.492a.533.533,0,0,1,.211-.4.722.722,0,0,1,.281-.117,2.019,2.019,0,0,1,.328-.023.738.738,0,0,1,.281.188.738.738,0,0,1,.188.281l.047.328h.281a10.071,10.071,0,0,1,1.219-.117q.633-.023,1.242-.023a4.564,4.564,0,0,1,1.664.4,4.87,4.87,0,0,1,1.43,1.008,2.7,2.7,0,0,1,.445,1.23,8,8,0,0,1,.023,1.371,5.48,5.48,0,0,1-.609,1.43A6.533,6.533,0,0,1,32.426-7.9a24.776,24.776,0,0,1-2.449,1.641,8.571,8.571,0,0,1-2.73,1.031q-.187,1.547-.352,3.082A10.6,10.6,0,0,1,26.121.844a.722.722,0,0,1-.281.117A2.019,2.019,0,0,1,25.512.984Zm3.867-8.461q.891-.516,1.758-1.125A4.417,4.417,0,0,0,32.52-10.2a4.458,4.458,0,0,0,.328-.82,2.993,2.993,0,0,0,.047-.961l-.375-.8a3.376,3.376,0,0,0-1.477-.633,7.705,7.705,0,0,0-1.711-.094L28-13.359q-.094,1.8-.328,3.352T27.34-6.68h.141a6.225,6.225,0,0,0,.973-.352Q28.91-7.242,29.379-7.477ZM-37.207,20.18l-.469-.234a1.4,1.4,0,0,1-.211-.4.855.855,0,0,1-.023-.445l.234-.469a4.132,4.132,0,0,1,1.652-.422,15.512,15.512,0,0,0,1.746-.187h2.391l.047-.047h2.578l.047-.047h2.625a13.038,13.038,0,0,0,1.77.07,4.2,4.2,0,0,1,1.723.3,1.4,1.4,0,0,1,.211.4.855.855,0,0,1,.023.445l-.234.469a1.12,1.12,0,0,1-.539.234,4.158,4.158,0,0,1-.633.047l-2.461-.141h-2.484l-.047.047H-31.84l-.047.047H-34.23q-.75.094-1.477.164T-37.207,20.18Zm3.07-7.547-.469-.234a1.4,1.4,0,0,1-.211-.4.855.855,0,0,1-.023-.445l.234-.469a1.8,1.8,0,0,1,1.055-.328q.586,0,1.148-.047h3.891q.281.047.539.07a.7.7,0,0,1,.445.211,2.05,2.05,0,0,1,.234.4.849.849,0,0,1,.047.492l-.234.469a.936.936,0,0,1-.516.211q-.281.023-.609.023l-.047-.047h-3.7Zm14.93,9.773a2.319,2.319,0,0,1-.352-.117,1.89,1.89,0,0,1-.3-.164,1.4,1.4,0,0,1-.211-.4.936.936,0,0,1-.023-.469l.234-.469a10.635,10.635,0,0,1,2.273-.328l2.367-.094a4.068,4.068,0,0,1,.609-1.8,5.18,5.18,0,0,0,.7-1.8H-15.27q-.75.047-1.477.141l-1.477.188a2.319,2.319,0,0,1-.352-.117,1.89,1.89,0,0,1-.3-.164,1.4,1.4,0,0,1-.211-.4.855.855,0,0,1-.023-.445l.234-.469a8.18,8.18,0,0,1,1.758-.375l1.8-.187h2.344l.7.375a1.12,1.12,0,0,1,.328.68,3.6,3.6,0,0,1,0,.82q-.281.891-.633,1.758t-.773,1.711h.141l2.25-.094.469.234a2.05,2.05,0,0,1,.234.4.849.849,0,0,1,.047.492l-.234.492a1.034,1.034,0,0,1-.4.188q-.211.047-.445.094l-.469-.047Zm15.375-6.7q-.187-.07-.363-.141a1.72,1.72,0,0,1-.316-.164A1.857,1.857,0,0,1-4.7,15a.936.936,0,0,1-.023-.469l.258-.469a8.03,8.03,0,0,1,2.039-.328q.984-.023,2.109-.047l2.039.023,1.172-.023.75.117,2.438.047q.234.047.469.105a1.167,1.167,0,0,1,.422.2,2.218,2.218,0,0,1,.2.41.976.976,0,0,1,.035.5l-.281.469a.678.678,0,0,1-.469.2q-.281.012-.562.012L5.848,15.7l-2.391-.047-1.641-.117-.047.023-2.086-.023Zm17.461,5.766-.469-.258a1.4,1.4,0,0,1-.211-.4.855.855,0,0,1-.023-.445.951.951,0,0,1,.234-.445q.188-.211.328-.4,1.969-1.922,3.75-4.031a48.167,48.167,0,0,0,3.281-4.359v-.141h-.937q-1.359.094-2.672.211a15.884,15.884,0,0,0-2.578.445l-.469-.234a1.4,1.4,0,0,1-.211-.4.855.855,0,0,1-.023-.445l.234-.469a10.188,10.188,0,0,1,3.445-.809q1.8-.105,3.633-.152a3.082,3.082,0,0,1,.75.094,1.491,1.491,0,0,1,.656.352,1.613,1.613,0,0,1,.281.539,1.436,1.436,0,0,1,.047.633,7.541,7.541,0,0,1-.609,1.359q-.375.656-.8,1.266h-.094l-.234.422h-.094l-.328.609h-.094l-.234.422a5.4,5.4,0,0,0-.445.4,1.243,1.243,0,0,0-.3.492l.328.188a1.734,1.734,0,0,0,.563.445q.328.164.656.352V16.8l.422.234,1.313.891.375.328a4.37,4.37,0,0,0,.7.492,6.849,6.849,0,0,1,.75.492l.492.563.047.609-.234.469a1.775,1.775,0,0,1-.422.211.855.855,0,0,1-.445.023l-.656-.375q-1.125-.844-2.273-1.687a25.619,25.619,0,0,0-2.367-1.547l-.422-.422-1.5,1.781L15.785,19.9l-.422.469-.187.188-.281.141v.094l-.141.141a3.426,3.426,0,0,1-.492.41A.891.891,0,0,1,13.629,21.469Zm19.617-3.094-.422-.07a2.937,2.937,0,0,1-.27-.258.511.511,0,0,1-.105-.352q.3-2.648.574-5.3t.645-5.156a1.153,1.153,0,0,1,.34-.27.912.912,0,0,1,.434-.105l.516.07a1.066,1.066,0,0,1,.293.258.737.737,0,0,1,.129.375q-.3,2.438-.6,5.063t-.715,5.3a1.622,1.622,0,0,1-.352.27A1.9,1.9,0,0,1,33.246,18.375Zm-.727,4.781-.75-.516a2.05,2.05,0,0,1-.234-.4q-.094-.211-.234-.492l.047-.281.094-.609.234-.469a2.235,2.235,0,0,1,.727-.258q.4-.07.773-.117a4.2,4.2,0,0,1,.516.117,1,1,0,0,1,.422.258,1.565,1.565,0,0,1,.281.75l.094.844-.234.469H34.16v.094q-.375.234-.75.445A1.5,1.5,0,0,1,32.52,23.156Z" transform="translate(1150.044 520.822) rotate(-3)" fill="#222"/>
  </g>
</svg>
