<svg xmlns="http://www.w3.org/2000/svg" xmlns:xlink="http://www.w3.org/1999/xlink" width="246" height="3" viewBox="0 0 246 3">
  <defs>
    <clipPath id="clip-path">
      <rect width="246" height="3" fill="none"/>
    </clipPath>
  </defs>
  <g id="リピートグリッド_18" data-name="リピートグリッド 18" clip-path="url(#clip-path)">
    <g transform="translate(-110 -2585)">
      <circle id="楕円形_16" data-name="楕円形 16" cx="1.5" cy="1.5" r="1.5" transform="translate(110 2585)" fill="#382620"/>
    </g>
    <g transform="translate(-99 -2585)">
      <circle id="楕円形_16-2" data-name="楕円形 16" cx="1.5" cy="1.5" r="1.5" transform="translate(110 2585)" fill="#382620"/>
    </g>
    <g transform="translate(-88 -2585)">
      <circle id="楕円形_16-3" data-name="楕円形 16" cx="1.5" cy="1.5" r="1.5" transform="translate(110 2585)" fill="#382620"/>
    </g>
    <g transform="translate(-77 -2585)">
      <circle id="楕円形_16-4" data-name="楕円形 16" cx="1.5" cy="1.5" r="1.5" transform="translate(110 2585)" fill="#382620"/>
    </g>
    <g transform="translate(-66 -2585)">
      <circle id="楕円形_16-5" data-name="楕円形 16" cx="1.5" cy="1.5" r="1.5" transform="translate(110 2585)" fill="#382620"/>
    </g>
    <g transform="translate(-55 -2585)">
      <circle id="楕円形_16-6" data-name="楕円形 16" cx="1.5" cy="1.5" r="1.5" transform="translate(110 2585)" fill="#382620"/>
    </g>
    <g transform="translate(-44 -2585)">
      <circle id="楕円形_16-7" data-name="楕円形 16" cx="1.5" cy="1.5" r="1.5" transform="translate(110 2585)" fill="#382620"/>
    </g>
    <g transform="translate(-33 -2585)">
      <circle id="楕円形_16-8" data-name="楕円形 16" cx="1.5" cy="1.5" r="1.5" transform="translate(110 2585)" fill="#382620"/>
    </g>
    <g transform="translate(-22 -2585)">
      <circle id="楕円形_16-9" data-name="楕円形 16" cx="1.5" cy="1.5" r="1.5" transform="translate(110 2585)" fill="#382620"/>
    </g>
    <g transform="translate(-11 -2585)">
      <circle id="楕円形_16-10" data-name="楕円形 16" cx="1.5" cy="1.5" r="1.5" transform="translate(110 2585)" fill="#382620"/>
    </g>
    <g transform="translate(0 -2585)">
      <circle id="楕円形_16-11" data-name="楕円形 16" cx="1.5" cy="1.5" r="1.5" transform="translate(110 2585)" fill="#382620"/>
    </g>
    <g transform="translate(11 -2585)">
      <circle id="楕円形_16-12" data-name="楕円形 16" cx="1.5" cy="1.5" r="1.5" transform="translate(110 2585)" fill="#382620"/>
    </g>
    <g transform="translate(22 -2585)">
      <circle id="楕円形_16-13" data-name="楕円形 16" cx="1.5" cy="1.5" r="1.5" transform="translate(110 2585)" fill="#382620"/>
    </g>
    <g transform="translate(33 -2585)">
      <circle id="楕円形_16-14" data-name="楕円形 16" cx="1.5" cy="1.5" r="1.5" transform="translate(110 2585)" fill="#382620"/>
    </g>
    <g transform="translate(44 -2585)">
      <circle id="楕円形_16-15" data-name="楕円形 16" cx="1.5" cy="1.5" r="1.5" transform="translate(110 2585)" fill="#382620"/>
    </g>
    <g transform="translate(55 -2585)">
      <circle id="楕円形_16-16" data-name="楕円形 16" cx="1.5" cy="1.5" r="1.5" transform="translate(110 2585)" fill="#382620"/>
    </g>
    <g transform="translate(66 -2585)">
      <circle id="楕円形_16-17" data-name="楕円形 16" cx="1.5" cy="1.5" r="1.5" transform="translate(110 2585)" fill="#382620"/>
    </g>
    <g transform="translate(77 -2585)">
      <circle id="楕円形_16-18" data-name="楕円形 16" cx="1.5" cy="1.5" r="1.5" transform="translate(110 2585)" fill="#382620"/>
    </g>
    <g transform="translate(88 -2585)">
      <circle id="楕円形_16-19" data-name="楕円形 16" cx="1.5" cy="1.5" r="1.5" transform="translate(110 2585)" fill="#382620"/>
    </g>
    <g transform="translate(99 -2585)">
      <circle id="楕円形_16-20" data-name="楕円形 16" cx="1.5" cy="1.5" r="1.5" transform="translate(110 2585)" fill="#382620"/>
    </g>
    <g transform="translate(110 -2585)">
      <circle id="楕円形_16-21" data-name="楕円形 16" cx="1.5" cy="1.5" r="1.5" transform="translate(110 2585)" fill="#382620"/>
    </g>
    <g transform="translate(121 -2585)">
      <circle id="楕円形_16-22" data-name="楕円形 16" cx="1.5" cy="1.5" r="1.5" transform="translate(110 2585)" fill="#382620"/>
    </g>
    <g transform="translate(132 -2585)">
      <circle id="楕円形_16-23" data-name="楕円形 16" cx="1.5" cy="1.5" r="1.5" transform="translate(110 2585)" fill="#382620"/>
    </g>
  </g>
</svg>
