<svg xmlns="http://www.w3.org/2000/svg" width="307.962" height="160.398"><g fill="#222"><path data-name="パス 42353" d="M149.359 10.701a394.925 394.925 0 0142.975 5.205c.709.14 1.656.316 2.753.527a409.571 409.571 0 0146.704 11.304c24.342 7.684 41.349 16.74 50.544 26.923a42.451 42.451 0 019.08 15.833 43.41 43.41 0 011.761 8.558 44.5 44.5 0 01-4.749 24.982 40.45 40.45 0 01-4.645 7.012 37.06 37.06 0 01-6.003 5.803 104.3 104.3 0 01-12.825 8.808 70.923 70.923 0 01-18.344 7.012 152.317 152.317 0 01-29.543 3.674 424.204 424.204 0 01-46.523-1.114 830.973 830.973 0 01-19.39-1.603h-.017c-.403-.049-40.552-4.84-73.358-9.367-3.92 5.289-10.076 9.988-18.306 13.972a93.723 93.723 0 01-16.193 5.99.65.65 0 01-.36-1.249c4.095-1.273 7.386-4.324 9.784-9.068a41.719 41.719 0 003.725-12.731c-8.845-1.363-14.866-2.426-18.394-3.248-12.433-2.896-23.101-9.09-30.844-17.91A50.229 50.229 0 018.58 86.3a46.813 46.813 0 01-3.592-15.26 44.694 44.694 0 018.163-28.654 52.779 52.779 0 0111.982-12.125 70.468 70.468 0 0117.586-9.275c14.955-5.49 33.113-9.028 53.97-10.516a375.863 375.863 0 0152.67.23zm31.272 123.23a422.941 422.941 0 0046.38 1.112 151.06 151.06 0 0029.287-3.639 69.66 69.66 0 0018.015-6.883 103.276 103.276 0 0012.669-8.706 35.753 35.753 0 005.791-5.6 39.144 39.144 0 004.495-6.787 43.06 43.06 0 004.652-15.909 42.361 42.361 0 00-1.75-16.64 41.16 41.16 0 00-8.804-15.35c-4.9-5.424-12.188-10.597-21.664-15.373a191.905 191.905 0 00-28.307-11.181 408.345 408.345 0 00-46.554-11.267c-1.1-.208-2.05-.387-2.763-.529a393.478 393.478 0 00-42.814-5.183c-54.333-3.81-87.695 3.447-106.107 10.209a69.17 69.17 0 00-17.261 9.101A51.482 51.482 0 0014.21 43.131a43.406 43.406 0 00-7.93 27.826 45.52 45.52 0 003.493 14.836 48.93 48.93 0 008.39 13.36c7.563 8.616 17.992 14.668 30.164 17.503 3.53.822 9.899 1.94 18.93 3.326a.65.65 0 01.551.73 43.7 43.7 0 01-3.942 13.777 21.173 21.173 0 01-5.084 6.696c8.267-2.816 21.33-8.516 28.175-18.006a.65.65 0 01.62-.263c32.718 4.521 72.952 9.329 73.715 9.416a820.06 820.06 0 0019.344 1.6z"/><path data-name="パス 42353" d="M51.023 58.411l-.452-.266a1.4 1.4 0 01-.182-.414 1.02 1.02 0 01.011-.493l.266-.452.354-.35a13.79 13.79 0 001.12-1.473q.5-.767 1.003-1.575a2.731 2.731 0 00.405-1.075 3.272 3.272 0 01.357-1.078 1.4 1.4 0 01.414-.183.855.855 0 01.446.008l.452.267a1.12 1.12 0 01.195.554 4.16 4.16 0 01.003.635 10.688 10.688 0 01-1.251 2.757 29.744 29.744 0 01-1.773 2.483l-.404.395-.094-.007-.006.091a1.4 1.4 0 01-.414.183.855.855 0 01-.45-.007zm13.55.527l-.475-.268q-.834-1.515-1.764-3.015a14.77 14.77 0 01-1.472-3.135l.267-.452a1.4 1.4 0 01.414-.182.855.855 0 01.445.008l.452.266.412.832.094.006 1.637 2.795.777 1.324a1.6 1.6 0 01.315.54 1.277 1.277 0 01.024.66l-.266.45a1.4 1.4 0 01-.414.183.855.855 0 01-.447-.012zm1.746-8.151q-.367-.12-.712-.238a1.853 1.853 0 01-.632-.373l-.13-.15-.436-.501a2.04 2.04 0 01-.215-.626 2.807 2.807 0 01-.025-.637 3.839 3.839 0 01.366-.938 3.69 3.69 0 01.646-.824l.447-.345a1.4 1.4 0 01.511-.246 2.534 2.534 0 01.64-.072q.353.001.68.024a2.592 2.592 0 01.686.237 3.518 3.518 0 01.628.42l.348.4a1.52 1.52 0 01.401.992 6.486 6.486 0 01-.077 1.098 3.924 3.924 0 01-.277.604 2.735 2.735 0 01-.364.503l-.094-.007-.007.094a3.168 3.168 0 01-1.097.558 2.701 2.701 0 01-1.287.027zm1.03-1.926l.3-.26.035-.516a1.037 1.037 0 00-.398-.356.946.946 0 00-.511-.084l-.2.175-.458.485-.016.234.037.144.094.007.084.147.792.15zm5.956 13.255l-.45-.29a1.4 1.4 0 01-.182-.414.855.855 0 01.008-.446.951.951 0 01.265-.428q.202-.197.355-.376 2.1-1.78 4.025-3.76a48.189 48.189 0 003.584-4.121l.01-.141-.935-.066q-1.363-.001-2.681.024a15.891 15.891 0 00-2.604.263l-.452-.266a1.4 1.4 0 01-.183-.414.855.855 0 01.009-.446l.266-.451a10.193 10.193 0 013.495-.567q1.803.022 3.636.103a3.083 3.083 0 01.742.146 1.492 1.492 0 01.63.398 1.614 1.614 0 01.243.557 1.437 1.437 0 01.002.635 7.544 7.544 0 01-.703 1.314q-.42.628-.887 1.207l-.093-.006-.263.405-.094-.007-.37.585-.097-.007-.263.405a5.402 5.402 0 00-.472.368 1.244 1.244 0 00-.334.47l.314.21a1.735 1.735 0 00.53.484q.317.187.63.397l-.005.088.405.263 1.248.981.35.354a4.372 4.372 0 00.665.54 6.852 6.852 0 01.714.543l.452.597.004.61-.266.452a1.776 1.776 0 01-.436.181.855.855 0 01-.446-.008l-.629-.42q-1.063-.921-2.15-1.843a25.63 25.63 0 00-2.254-1.71l-.391-.45-1.622 1.672-1.058.967-.454.439-.2.174-.29.121-.007.094-.15.131a3.428 3.428 0 01-.52.375.891.891 0 01-.645.08zm21.183 4.303l-.452-.266a1.4 1.4 0 01-.182-.414 1.02 1.02 0 01.011-.493 32.802 32.802 0 002.196-3.17 30.853 30.853 0 001.79-3.385q-.893-.674-1.813-1.33a7.568 7.568 0 00-1.974-1.009l-.16.27a1 1 0 01-.44.229 1.132 1.132 0 01-.516-.013l-.452-.267a1.4 1.4 0 01-.183-.414.855.855 0 01.009-.445 17.08 17.08 0 001.627-2.425q.7-1.266 1.355-2.56a1.4 1.4 0 01.414-.183.855.855 0 01.445.008l.452.267.168.293a23.983 23.983 0 012.585.323 9.933 9.933 0 012.415.757 1.108 1.108 0 01.212.673q-.004.376-.03.75a54.625 54.625 0 01-2.63 6.326 37.629 37.629 0 01-3.582 5.862l-.094-.007-.213.361-.094-.006-.006.094a1.4 1.4 0 01-.414.182.855.855 0 01-.444-.008zm4.233-9.411l.007-.094a17.682 17.682 0 01.685-1.715 11.877 11.877 0 00.638-1.718q-.925-.207-1.88-.367a13.436 13.436 0 00-1.938-.183l-.98 1.906a8.717 8.717 0 011.788.995q.828.6 1.68 1.175zm13.386 9.895a7.547 7.547 0 01-1.867-1.53 12.005 12.005 0 00-1.789-1.665 1.4 1.4 0 01-.182-.414.855.855 0 01.008-.446l.266-.452a1.4 1.4 0 01.414-.182 1.02 1.02 0 01.493.011 2.145 2.145 0 01.61.344q.285.232.554.485l.572.558.351.353a6.103 6.103 0 00.68.706l.44.432.264.253a1.4 1.4 0 01.182.414.855.855 0 01-.008.446l-.266.452a.7.7 0 01-.34.164zm17.867 1.3l-.452-.266a1.4 1.4 0 01-.182-.414 1.02 1.02 0 01.011-.493 33.665 33.665 0 002.043-4.322 26.066 26.066 0 001.308-4.585l-1.447-.102-3.475-.055-.01.14-.063 2.91-.266.452a1.4 1.4 0 01-.414.183.855.855 0 01-.446-.008l-.452-.267a4.05 4.05 0 01-.214-1.66 15.707 15.707 0 00.027-1.737l-.093-.006-1.807.015-.451-.267a1.4 1.4 0 01-.183-.414.855.855 0 01.008-.445l.267-.452a1.854 1.854 0 011.11-.251 7.203 7.203 0 001.189-.011l.072-1.035-.03-.237a2.32 2.32 0 01.141-.343 1.89 1.89 0 01.185-.288 1.4 1.4 0 01.414-.182.855.855 0 01.445.008l.452.266a1.372 1.372 0 01.222.862l-.066.936.468.033q1.223-.008 2.443.03t2.436.124l.099-1.405-.077-.922a2.32 2.32 0 01.142-.344 1.89 1.89 0 01.184-.288 1.4 1.4 0 01.414-.182.855.855 0 01.446.008l.452.266a3.412 3.412 0 01.25 1.463q-.032.785-.088 1.58.655.047 1.344.118a3.001 3.001 0 011.23.387 1.4 1.4 0 01.183.414 1.02 1.02 0 01-.011.493l-.267.451a.832.832 0 01-.472.202 1.63 1.63 0 01-.55-.039l-1.818-.221a35.64 35.64 0 01-1.479 4.997 28.435 28.435 0 01-2.314 4.729 1.4 1.4 0 01-.414.182.855.855 0 01-.445-.008zm17.803 1.202l-.453-.264a1.4 1.4 0 01-.183-.414.855.855 0 01.008-.445l.521-.716.2-.174.86-.809a11.616 11.616 0 001.278-1.51l1.147-1.612q.283-.683.612-1.344a7.203 7.203 0 00.521-1.398l-.835-.153-1.914-.134q-1.36-.048-2.681.023t-2.6.22a2.32 2.32 0 01-.344-.142 1.89 1.89 0 01-.288-.185 1.4 1.4 0 01-.182-.414.855.855 0 01.008-.446l.266-.451a15.207 15.207 0 012.894-.385q1.509-.059 3.012-.047l1.966.137q.604.09 1.206.226a2.893 2.893 0 011.093.5 1.309 1.309 0 01.265.912l-.072 1.03q-.5 1.093-.974 2.165a10.829 10.829 0 01-1.211 2.053q-.414.535-.88 1.113t-.93 1.18l-.2.175-.504.483-.2.174-.15.131-.15.13a2.166 2.166 0 01-.518.34.921.921 0 01-.588.05zm-1.393-13.66a2.32 2.32 0 01-.343-.142 1.89 1.89 0 01-.288-.184 1.364 1.364 0 01-.182-.424.9.9 0 01.01-.458l.266-.452a4.576 4.576 0 011.777-.204 17.698 17.698 0 001.855.036l2.433.17.452.267a1.4 1.4 0 01.182.414.855.855 0 01-.008.445l-.268.475a.7.7 0 01-.34.165l-.381.067-2.111-.148zm17.182 14.767l-.452-.263a1.4 1.4 0 01-.182-.414 1.02 1.02 0 01.011-.493 37.237 37.237 0 002.363-3.197 20.486 20.486 0 001.867-3.49q-.9-.579-1.83-1.067a5.187 5.187 0 00-1.721-.592l-.247.172a1.4 1.4 0 01-.414.182 1.02 1.02 0 01-.493-.011l-.451-.267a1.4 1.4 0 01-.183-.414 1.02 1.02 0 01.012-.492l.266-.452.2-.173.095.006q.65-1.224 1.11-2.084t.992-1.693a1.4 1.4 0 01.414-.182.855.855 0 01.446.008 22.964 22.964 0 002.802.598 10.205 10.205 0 012.74.803.936.936 0 01.175.53q.003.281-.02.609-.998 2.797-2.27 5.557a29.222 29.222 0 01-3.297 5.403l-.094-.006-.777 1.073-.144.037-.106.137a.7.7 0 01-.365.163 2.049 2.049 0 01-.447.012zM168 60.927l.007-.093q.28-.639.558-1.254a8.826 8.826 0 00.468-1.307q-.832-.2-1.738-.357t-1.787-.266l-.816 1.635a11.424 11.424 0 011.687.73 16.257 16.257 0 011.58.957zm5.456-2.389a4.06 4.06 0 01-1.078-.878 9.017 9.017 0 00-1.024-.988 1.4 1.4 0 01-.183-.414.855.855 0 01.008-.446l.267-.452a1.4 1.4 0 01.414-.182.855.855 0 01.445.008l1.007.728.395.404.656.657a2.847 2.847 0 01.204.437.85.85 0 01.013.495l-.267.451a1.4 1.4 0 01-.414.183.855.855 0 01-.443-.003zm1.922-1.865a2.32 2.32 0 01-.343-.141 1.89 1.89 0 01-.288-.185l-.26-.3-.993-.587a1.4 1.4 0 01-.183-.414.855.855 0 01.008-.446l.267-.452a1.4 1.4 0 01.414-.182 1.02 1.02 0 01.492.011 6.078 6.078 0 01.776.384q.36.213.719.473l.385.545.004.61-.266.452a.7.7 0 01-.34.165zm6.949 15.155a7.547 7.547 0 01-1.868-1.53 12.005 12.005 0 00-1.788-1.666 1.4 1.4 0 01-.182-.414.855.855 0 01.008-.446l.266-.451a1.4 1.4 0 01.414-.183 1.02 1.02 0 01.493.012 2.145 2.145 0 01.61.343q.285.232.554.485l.572.558.351.354a6.103 6.103 0 00.68.705l.44.432.264.253a1.4 1.4 0 01.183.414.855.855 0 01-.009.446l-.266.452a.7.7 0 01-.34.164zm14.664.697l-.451-.267a1.95 1.95 0 01-.176-.506 2.04 2.04 0 01-.033-.542l.05-.044.215-3.062.136-1.306-.044-.05.227-3.228.152-1.494q.035-1.173.019-2.29t-.074-2.254l.267-.451a1.4 1.4 0 01.414-.183.855.855 0 01.445.008l.452.267a8.417 8.417 0 01.355 2.645q-.028 1.397-.08 2.803l.095.006.161.388.094.006.522.602.352.353.783.902.392.45.605.745a1.4 1.4 0 01.183.414 1.02 1.02 0 01-.014.497l-.266.452a1.4 1.4 0 01-.414.183.855.855 0 01-.446-.009l-.452-.266-1.695-1.952-.134-.104-.115 1.638-.045 1.313-.05.044-.255 3.626-.316.495a1.4 1.4 0 01-.414.183.855.855 0 01-.445-.012zm8.325-10.44a2.32 2.32 0 01-.343-.142 3.213 3.213 0 01-.316-.187l.006-.093q-.538-.367-1.05-.756a12.134 12.134 0 01-.999-.845 1.4 1.4 0 01-.182-.414.855.855 0 01.008-.446l.268-.475a1.4 1.4 0 01.414-.182.855.855 0 01.446.008l2.078 1.533a3.522 3.522 0 00.352.353 1.29 1.29 0 01.3.398l.008.565-.266.451a.7.7 0 01-.34.165zm1.424-2.207q-.452-.267-.9-.565t-.85-.612a1.164 1.164 0 01-.206-.416.855.855 0 01.008-.446l.29-.45a1.4 1.4 0 01.414-.182 1.02 1.02 0 01.493.011l1.708 1.107a1.4 1.4 0 01.183.414 1.02 1.02 0 01-.011.493l-.268.474a1.4 1.4 0 01-.414.183.855.855 0 01-.442-.005zm11.186 14.447l-.45-.263a.7.7 0 01-.163-.365q-.032-.214-.066-.406a13.925 13.925 0 001.947-5.012q.467-2.647.939-5.34l.141-2.013-.112-1.72.266-.451a1.4 1.4 0 01.414-.183.855.855 0 01.446.008l.452.267a1.786 1.786 0 01.307.985q.009.541.065 1.086l-.15 2.151q-.482 2.834-.99 5.714a13.806 13.806 0 01-2.19 5.37 1.4 1.4 0 01-.414.183.855.855 0 01-.442-.011zm-3.294-6.65a2.32 2.32 0 01-.343-.141 1.89 1.89 0 01-.288-.185 2.068 2.068 0 01-.178-.483 1.79 1.79 0 01-.034-.52l.093-.651.001-1.363.263-3.742a2.32 2.32 0 01.141-.343 1.89 1.89 0 01.185-.288 1.164 1.164 0 01.415-.206.855.855 0 01.446.008l.45.29.2.485-.268 3.836-.09 2.627-.266.451a.7.7 0 01-.341.165zm17.59 5.937q-.23-.064-.483-.152a1.308 1.308 0 01-.43-.241 1.4 1.4 0 01-.182-.414.855.855 0 01.008-.446l.266-.452a12.439 12.439 0 004.465-.98 16.131 16.131 0 004.001-2.427l1.652-1.435.918-.688a.624.624 0 01.09-.276 2.621 2.621 0 01.183-.268.986.986 0 01.462-.227 1.248 1.248 0 01.54.015l.451.266a1.4 1.4 0 01.183.414.855.855 0 01-.008.446 1.852 1.852 0 01-.322.565q-.204.245-.412.512l-.093-.007-.007.094-.597.476-.454.438-.15.131q-.766.511-1.461 1.049t-1.397 1.152a22.297 22.297 0 01-3.457 1.708 11.045 11.045 0 01-3.766.747zm2.107-8.597l-.452-.266-1.358-1.411-.75-.755a1.4 1.4 0 01-.182-.414.936.936 0 01.01-.47l.266-.451a1.4 1.4 0 01.414-.183.855.855 0 01.446.008 1.515 1.515 0 01.583.394l.526.555.037.144 1.368 1.27a1.835 1.835 0 01.204.438.946.946 0 01.01.519l-.266.451a1.4 1.4 0 01-.414.183.855.855 0 01-.442-.013zm18.19 12.112l-.452-.266a2.59 2.59 0 01-.173-.4.875.875 0 01-.001-.482 60.764 60.764 0 003.347-5.665 63.243 63.243 0 002.736-5.99l-3.056-.332-.354.022q-.63.943-1.309 1.894T251.92 67.8a1.579 1.579 0 01-.417.23.85.85 0 01-.494.012l-.454-.243a1.673 1.673 0 01-.194-.415.782.782 0 01-.004-.446q.717-1.173 1.548-2.299t1.622-2.342a1.058 1.058 0 01.721-.279q.401.006.82.035 1.257.182 2.517.306a6.568 6.568 0 012.306.643 1.673 1.673 0 01.194.415.925.925 0 010 .493 63.957 63.957 0 01-2.889 6.685 48.573 48.573 0 01-3.768 6.29 2.05 2.05 0 01-.415.205.994.994 0 01-.495.037zM93.66 93.142l-.452-.267a1.364 1.364 0 01-.182-.424 1.074 1.074 0 01.012-.5l.266-.452a7.747 7.747 0 00.672-.87q.315-.47.633-.966a9.087 9.087 0 00.46-1.19 4.491 4.491 0 00.185-1.303 2.852 2.852 0 00-.286-1.29 5.328 5.328 0 00-.767-1.135 3.154 3.154 0 00-1.313-.703 8.646 8.646 0 00-1.581-.252 9.966 9.966 0 01-.521 3.137 9.222 9.222 0 01-1.482 2.693l-.093-.007-.16.27-.405.396-.3.26-.299.119-.007.094a2.962 2.962 0 01-1.21.503 4.374 4.374 0 01-1.365.021 3.425 3.425 0 01-.68-.306 3.148 3.148 0 01-.58-.442 2.55 2.55 0 01-.483-1.327 10.27 10.27 0 01-.001-1.481 6.078 6.078 0 01.777-2.225 9.928 9.928 0 011.46-1.896 5.954 5.954 0 012.207-1.302 9.304 9.304 0 012.476-.437 17.23 17.23 0 012.375.33 5.975 5.975 0 012.1.877l.53.508-.007.094.094.006.432.548a4.541 4.541 0 01.852 1.917 6.625 6.625 0 01.011 2.187 8.12 8.12 0 01-.907 2.382 18.108 18.108 0 01-1.453 2.131l-.15.131a1.4 1.4 0 01-.415.183.855.855 0 01-.443-.012zm-6.732-3.882a4.26 4.26 0 00.8-.696 6.603 6.603 0 00.622-.803 7.287 7.287 0 00.81-1.824 8.129 8.129 0 00.307-2.046l-.186-.013q-.287.074-.551.15a2.843 2.843 0 00-.508.199l-.006.093-1.078.627a7.794 7.794 0 00-1.179 1.722 4.414 4.414 0 00-.445 2.061l.1.572a.722.722 0 00.273.136 2.02 2.02 0 00.326.046zm18.06 4.91a3.02 3.02 0 01-.796-.373 3.301 3.301 0 01-.687-.6 2.23 2.23 0 01-.407-.899 5.461 5.461 0 01-.116-1.019q.19-.688.42-1.31a3.35 3.35 0 01.74-1.152 4.329 4.329 0 01.96-.634q.511-.246 1.002-.54l.575-.148.043-.608-.02-1.74-.28-.02a7.123 7.123 0 00-1.176.012l-1.136.109q-.23-.064-.483-.151a1.6 1.6 0 01-.453-.244 1.4 1.4 0 01-.183-.414.855.855 0 01.009-.446l.266-.451a6.933 6.933 0 011.54-.193q.804-.014 1.6-.005l.01-.143a2.76 2.76 0 00-.172-.894 2.201 2.201 0 01-.122-.937l.266-.452a1.4 1.4 0 01.407-.178.855.855 0 01.446.009l.451.266a3.08 3.08 0 01.396 1.074q.1.582.15 1.198l.382.027a5.402 5.402 0 01.92-.053q.493.011.961.044l.452.266a1.4 1.4 0 01.183.414.855.855 0 01-.008.446l-.267.452a1.714 1.714 0 01-1.097.224 4.153 4.153 0 00-1.178.034l-.092.652.045 1.366.234.016q.568-.054 1.132-.062t1.173.036a6.856 6.856 0 011.327.516 7.214 7.214 0 011.215.787l.522.601a3.187 3.187 0 01.664 1.434 5.49 5.49 0 01.035 1.671 5.371 5.371 0 01-.18 1.069 3.118 3.118 0 01-.455.955 2.05 2.05 0 01-.416.205.85.85 0 01-.494.013l-.452-.267a1.4 1.4 0 01-.183-.414 1.02 1.02 0 01.012-.492 2.226 2.226 0 00.251-.9q.035-.49.115-.955a2.331 2.331 0 00-.201-.88 2.284 2.284 0 00-.581-.77 4.875 4.875 0 00-1.036-.59 3.12 3.12 0 00-1.207-.226l-1.51.083a9.204 9.204 0 01-.407 2.463 5.736 5.736 0 01-1.18 2.079l-.25.217a2.65 2.65 0 01-.8.355 2.801 2.801 0 01-.88.069zm.608-1.955a3.738 3.738 0 00.745-1.24 5.54 5.54 0 00.291-1.462l-.094-.006-.725.325-.006.094-.347.257-.094-.006a4.68 4.68 0 00-.354.75 2.893 2.893 0 00-.174.81l.115.385.505.176zm9.639-5.718l-.475-.268a2.39 2.39 0 00-.646-.515 4.663 4.663 0 01-.696-.472 1.4 1.4 0 01-.182-.414.855.855 0 01.008-.446l.266-.452a1.4 1.4 0 01.414-.182 1.02 1.02 0 01.493.011l1.645 1.01a2.333 2.333 0 01.265.511 1.036 1.036 0 01.03.59l-.267.452a1.4 1.4 0 01-.414.182.855.855 0 01-.443-.005zm19.39 13.094l-.451-.266a.7.7 0 01-.162-.364q-.032-.214-.066-.406a14.528 14.528 0 00.767-2.885q.249-1.534.404-3.074l-.037-.144-1.73-.122-.872.033-1.917-.134-2.21.033a2.32 2.32 0 01-.342-.141 1.89 1.89 0 01-.288-.185 1.4 1.4 0 01-.183-.414.855.855 0 01.008-.445l.267-.452a3.844 3.844 0 011.424-.201 14.407 14.407 0 001.458-.015l1.871.131 2.51.082.016-.234-.014-.47.267-.453a1.4 1.4 0 01.414-.182.855.855 0 01.445.008l.452.266a1.04 1.04 0 01.288.585 3.125 3.125 0 01.024.66l1.109.078a1.968 1.968 0 011.009.352 1.4 1.4 0 01.183.414.855.855 0 01-.009.446l-.266.452a1.1 1.1 0 01-.507.199 3.01 3.01 0 01-.542.009l-.978-.116q-.172 1.774-.435 3.519a10.413 10.413 0 01-1.051 3.264 1.4 1.4 0 01-.414.182.855.855 0 01-.443-.013zm-10.276-1.943l-.452-.266a1.407 1.407 0 01-.22-.885l.067-.96.17-1.75-.016-1.788.16-.928-.044-.05.164-2.342.002-.702-.14-.01-.304.308-.397.301-.35.305-.094-.007-.11.227a1.4 1.4 0 01-.414.183 1.02 1.02 0 01-.493-.012l-.452-.266a1.4 1.4 0 01-.182-.414.855.855 0 01.008-.446.84.84 0 01.266-.452 5.116 5.116 0 00.404-.395 24.264 24.264 0 002.512-2.13q1.173-1.14 2.38-2.277a1.4 1.4 0 01.415-.183.855.855 0 01.445.008l.452.267a1.4 1.4 0 01.183.414.855.855 0 01-.009.445 1.454 1.454 0 01-.335.494 3.056 3.056 0 00-.384.444l-1.763 1.662.047.004a1.675 1.675 0 01.226 1.074 9.333 9.333 0 00-.058 1.147l-.163 2.336v.658l-.161 1.635.06.474-.139 1.988a2.923 2.923 0 00-.11.91 1.053 1.053 0 01-.291.801 1.4 1.4 0 01-.414.183.936.936 0 01-.467-.008zm7.459-1.451a11.576 11.576 0 01-1.356-.778q-.67-.448-1.297-.937a1.4 1.4 0 01-.183-.414.855.855 0 01.009-.446l.266-.451a1.4 1.4 0 01.414-.183 1.02 1.02 0 01.492.012l2.428 1.58a1.927 1.927 0 01.205.426.9.9 0 01.012.502l-.267.451a.7.7 0 01-.34.165zm-3.105-7.339a2.32 2.32 0 01-.343-.141 1.89 1.89 0 01-.288-.185 1.4 1.4 0 01-.183-.414.855.855 0 01.008-.446l.267-.451a11.956 11.956 0 012.178-.224l2.258-.029 2.808.197.043.05 2.13.15.842.007.368.12a.7.7 0 01.314.21 1.4 1.4 0 01.183.414.855.855 0 01-.009.446l-.266.452a1.034 1.034 0 01-.412.16q-.214.031-.451.062l-.605-.09-.05.044-2.268-.16-.044-.05-2.667-.186-1.909.054q-.966.025-1.906.006zm1.955-2.401l-.452-.267a1.407 1.407 0 01-.22-.884l.067-.96.05-.043.186-2.648.039-1.22a1.439 1.439 0 01.248-.523q.182-.246.334-.47a1.285 1.285 0 01.928-.17 3.557 3.557 0 001.01.024l3.462.243.555.133a1.266 1.266 0 01.522.272.986.986 0 01.226.462 1.248 1.248 0 01-.015.54l-.07.323.045 2.711q-.096.696-.238 1.37a2.266 2.266 0 01-.622 1.16 1.922 1.922 0 01-1.217.197 6.34 6.34 0 00-1.337-.047l-3.087-.216zm4.859-1.587l.006-.094.083-.511a4.173 4.173 0 00-1.088-.218l-1.145-.08-1.41-.005-.096.695 2.295.161zm-11.891-1.728l-.452-.266a1.364 1.364 0 01-.182-.424 1.074 1.074 0 01.012-.5l.267-.452 1.342-1.034 1.118-.862a1.4 1.4 0 01.414-.182.855.855 0 01.445-.001l.451.266a1.4 1.4 0 01.183.414.855.855 0 01-.008.446 1.454 1.454 0 01-.336.494q-.227.219-.477.437l-.587.335-.206.267-.822.672-.29.12-.007.094a1.4 1.4 0 01-.414.183.855.855 0 01-.452-.01zm12.07-.822l.006-.094.015-.892-2.947-.207-.658.001-.042.608.02.377.468.033 2.674.094zm15.433 15.892a2.345 2.345 0 01-.916-.346 4.602 4.602 0 01-.759-.617 2.624 2.624 0 01-.512-1.082 4.289 4.289 0 01-.08-1.193 6.492 6.492 0 01.326-.964 3.135 3.135 0 01.553-.855l.201-.174a2.786 2.786 0 011.34-.658 5.124 5.124 0 011.576-.03l.122-1.736.034-1.831.266-.452a1.4 1.4 0 01.414-.182.855.855 0 01.446.008l.451.266a2.109 2.109 0 01.23 1.027q-.016.54-.008 1.103l-.131 1.871q.645.187 1.29.392a2.691 2.691 0 011.125.713 1.164 1.164 0 01.205.416.855.855 0 01-.008.446l-.29.45a1.4 1.4 0 01-.414.182 1.02 1.02 0 01-.493-.011 4.745 4.745 0 00-.77-.456 2.436 2.436 0 00-.878-.226 12.384 12.384 0 01-.298 1.578 3.708 3.708 0 01-.708 1.385l-.35.304a4.369 4.369 0 01-.927.476 3.128 3.128 0 01-1.038.192zm.807-2.13a1.747 1.747 0 00.51-.904q.106-.51.192-1.068l-.699-.049-.67.188-.007.094-.404.395-.187.644.191.625.542.32zm-6.409-5.856l-.475-.268a1.4 1.4 0 01-.182-.414 1.02 1.02 0 01.011-.493l1.304-2.165-.185-.013-.588.006-.452-.266a1.4 1.4 0 01-.182-.414.855.855 0 01.008-.446l.266-.452a2.65 2.65 0 011.089-.276q.603-.028 1.169-.083a4.393 4.393 0 00.437-.872 2.701 2.701 0 01.531-.865 1.4 1.4 0 01.414-.183.855.855 0 01.446.008l.451.267a1.4 1.4 0 01.183.414 1.02 1.02 0 01-.011.492l-.172.435.14.01q.478-.108 1-.177a3.789 3.789 0 011.08.016l.494.336a1.4 1.4 0 01.182.414.855.855 0 01-.008.446l-.266.451a1.056 1.056 0 01-.388.162q-.19.033-.428.064l-.417-.077-2.423.348q-.483.86-1.015 1.734a17.857 17.857 0 01-1.152 1.682 1.4 1.4 0 01-.414.183.855.855 0 01-.445-.008zm12.881-1.64a.977.977 0 01-.418-.24q-.188-.178-.366-.327l-1.15-1.025-.13-.15-.531-.46a2.656 2.656 0 01-.267-.488.94.94 0 01-.03-.566l.26-.452a1.4 1.4 0 01.415-.183.855.855 0 01.446.009l.451.266-.006.094.625.467.13.15.509.46-.007.093.585.37.131.15-.007.095.094.006a2.166 2.166 0 01.342.515.921.921 0 01.053.591l-.266.452a1.4 1.4 0 01-.414.182.855.855 0 01-.449-.008zm15.097 10.298q-1.337-.376-2.677-.717a5.024 5.024 0 01-2.35-1.352 6.897 6.897 0 01-1.307-2.8 14.177 14.177 0 01-.3-3.1l-.093-.006q-.478.108-.958.262a2.82 2.82 0 01-1.066.113l-.452-.266a1.4 1.4 0 01-.182-.414.855.855 0 01.008-.446l.266-.451q.652-.236 1.274-.404t1.292-.31l.075-1.07-.03-.238.095-.695-.011-.516a4.72 4.72 0 00.094-.664.781.781 0 01.273-.556 1.4 1.4 0 01.414-.183.855.855 0 01.446.009l.452.266a1.067 1.067 0 01.214.638q-.001.34-.027.715l-.067.277-.009.802-.057.137-.009.802.094.006q1.667-.306 3.342-.467a17.828 17.828 0 013.455.007l.555.134a1.106 1.106 0 01.499.27 1.46 1.46 0 01.231.556 1.33 1.33 0 01-.032.633 4.841 4.841 0 01-.376.675 7.724 7.724 0 01-.467.626 1.026 1.026 0 00-.403.373q-.158.247-.314.47l-.09-.005-.37.584-.094-.006-.16.27-.908.877-.2.175-.15.13a1.25 1.25 0 01-.442.252.946.946 0 01-.518.01l-.452-.266a1.4 1.4 0 01-.182-.414.855.855 0 01.008-.446l.42-.628q.65-.565 1.259-1.181a6.895 6.895 0 001.034-1.338l-.515-.036a25.05 25.05 0 00-2.696.234q-1.33.189-2.656.331l-.036.515a15.293 15.293 0 00.297 2.466 5.953 5.953 0 00.972 2.23 9.39 9.39 0 002.263.911 16.884 16.884 0 002.483.456l1.274-.052.451.267a1.164 1.164 0 01.206.415 1.02 1.02 0 01-.012.493l-.292.473a2.938 2.938 0 01-1.334.26q-.704-.041-1.452-.093zm11.58 1.799l-.452-.267a1.4 1.4 0 01-.183-.414 1.02 1.02 0 01.012-.492l.266-.452a14.623 14.623 0 001.899-1.935q.848-1.044 1.583-2.122a11.715 11.715 0 00.57-1.089q.25-.546.481-1.141a1.4 1.4 0 01.414-.183.855.855 0 01.446.008l.451.267a1.106 1.106 0 01.198.531 3.714 3.714 0 01.004.611 12.885 12.885 0 01-1.295 2.377q-.783 1.149-1.612 2.214l-.404.395-.094-.007-.368.562-.354.352-.2.174-.35.304-.15.131a1.4 1.4 0 01-.415.183.855.855 0 01-.447-.007zm-2.367-4.468l-.452-.266q-.325-.725-.596-1.5a13.028 13.028 0 01-.453-1.583l.266-.451a1.4 1.4 0 01.414-.183.855.855 0 01.446.008l.452.267.174.2q.282.678.537 1.401a6.794 6.794 0 01.342 1.481l-.266.452a1.4 1.4 0 01-.414.183.855.855 0 01-.45-.009zm3.204-.762l-.452-.266a11.74 11.74 0 01-.561-1.38 7.203 7.203 0 01-.321-1.456l.266-.452a1.4 1.4 0 01.414-.183.855.855 0 01.446.009l.452.266a8.438 8.438 0 01.605 1.382 5.51 5.51 0 01.272 1.454l-.267.451a1.4 1.4 0 01-.414.183.855.855 0 01-.44-.008zm15.433 6.841l-.452-.266a.817.817 0 01-.221-.533q-.003-.282-.03-.566l.188-2.695-.014-1.17.05-.044.375-5.334-.034-.19.05-.044.251-3.578-.059-1.18.267-.451a1.4 1.4 0 01.414-.183.855.855 0 01.445.008l.452.266a1.23 1.23 0 01.247.77 4.256 4.256 0 00.06.807l-.257 3.672-.06.185.037.144.361.213.75.755.307.303.308.304.696.8.13.151.917 1.005-.006.094.093.007a1.4 1.4 0 01.183.414 1.02 1.02 0 01-.012.492l-.266.452a1.4 1.4 0 01-.414.183.855.855 0 01-.446-.009l-.495-.316-1.042-1.158-1.224-1.309-.207 2.947-.08.465.049.661-.176 2.503-.01.802-.265.452a1.4 1.4 0 01-.414.182.855.855 0 01-.446-.01zm22.867-.28q-1.16-.883-2.325-1.867t-2.341-1.986l-.177.176-.935.593-.005.07q-1.1.604-2.156 1.258a5.566 5.566 0 01-2.313.802l-.338-.211a.83.83 0 01-.143-.311.67.67 0 01.025-.352q.528-1.166 1.17-2.28t1.258-2.203l-.502-.552q-.67-.85-1.422-1.675t-1.376-1.648l.03-.444.19-.34a3.487 3.487 0 011.328-.177q.7.037 1.432.04l2.021.331q.564-.994 1.11-2.073t1.156-2.07a1.89 1.89 0 01.31-.143.477.477 0 01.33 0l.495.317a7.024 7.024 0 01.482 1.839 9.904 9.904 0 00.41 1.862l.117.008a5.041 5.041 0 01.919-.041q.469.02.96.055l.91.087 1.289.068a2.18 2.18 0 00.597.194 1.184 1.184 0 01.548.239 1 1 0 01.154.312.67.67 0 01-.014.375l-.213.36-.469.321-.125.109-.198.15-.07-.005-.005.07-.417.23-.005.07-.738.512-.07-.005-.007.094-.347.258-.344.21-.219.102-.005.07-.296.214-.127.132-.247.172-.348.276-.152.154q.536 1.4 1.002 2.867t.97 2.88l-.213.36a.83.83 0 01-.268.123.885.885 0 01-.283.024zm-8.36-3.121q.956-.568 1.919-1.217a10.205 10.205 0 011.979-1.05.987.987 0 00.379.133.507.507 0 01.328.175l.15.2.177.176a5.363 5.363 0 00.836.823q.446.348.915.687l.009-.117a11.57 11.57 0 00-.578-1.65 5.422 5.422 0 01-.432-1.711l.316-.495.12-.04.004-.046.047.003.134-.224.718-.513 1.44-1.103.642-.448-.117-.008-1.077-.053-.91-.087-1.579.054-.34-.188a9.795 9.795 0 01-.474-1.28 7.29 7.29 0 01-.257-1.357l-.094-.007q-.406.747-.786 1.473a14.576 14.576 0 01-.851 1.421 1.607 1.607 0 01-.38.208.74.74 0 01-.458.015l-2.68-.4-.055.114 1.181 1.258.26.3.088.1.1.243.07.005.502.552.27.16a2.832 2.832 0 01.155.312.494.494 0 01.01.354 11.856 11.856 0 01-.889 1.63 10.26 10.26 0 00-.867 1.633l.052.003z"/></g></svg>